<svg xmlns="http://www.w3.org/2000/svg" viewBox="0 0 440 350"><g stroke="#09040f" stroke-width="11" stroke-linejoin="round"><path fill="#41155f" d="M220 16l58 58 92-30-35 92 70 66-96 16-42 110-42-110-96-16 70-66-35-92 92 30z"/><path fill="#8d27b5" d="M220 55q-65 0-90 72l90 108 90-108q-25-72-90-72z"/><path fill="#c54cff" d="M220 78q-35 0-55 48l55 70 55-70q-20-48-55-48z"/><circle cx="180" cy="132" r="13" fill="#ff3c7a"/><circle cx="260" cy="132" r="13" fill="#ff3c7a"/><path fill="#f2b2ff" d="M175 172h90l-45 38z"/><g fill="#d55cff"><circle cx="68" cy="85" r="11"/><circle cx="372" cy="85" r="11"/><circle cx="55" cy="260" r="11"/><circle cx="385" cy="260" r="11"/></g><g fill="#7f39c4"><circle cx="95" cy="165" r="7"/><circle cx="345" cy="165" r="7"/></g></g></svg>